<svg xmlns="http://www.w3.org/2000/svg" xmlns:xlink="http://www.w3.org/1999/xlink" viewBox="0 0 446.51 256"><defs><style>.cls-1,.cls-6{fill:none;}.cls-2{clip-path:url(#clip-path);}.cls-3{fill:#239f40;}.cls-4{fill:#fff;}.cls-5{fill:#da0000;}.cls-6{stroke:#fff;stroke-linecap:square;stroke-width:1.72px;}.cls-7{fill:url(#linear-gradient);}.cls-8{opacity:0.1;}.cls-9{fill:#231f20;}</style><clipPath id="clip-path" transform="translate(95.26)"><rect class="cls-1" width="256" height="256" rx="30"/></clipPath><linearGradient id="linear-gradient" x1="115.16" y1="236.09" x2="331.35" y2="19.91" gradientUnits="userSpaceOnUse"><stop offset="0" stop-color="#fff" stop-opacity="0.1"/><stop offset="0.37" stop-color="#fff" stop-opacity="0.11"/><stop offset="0.59" stop-color="#fff" stop-opacity="0.14"/><stop offset="0.77" stop-color="#fff" stop-opacity="0.2"/><stop offset="0.93" stop-color="#fff" stop-opacity="0.28"/><stop offset="0.97" stop-color="#fff" stop-opacity="0.3"/><stop offset="1" stop-color="#fff" stop-opacity="0.2"/></linearGradient></defs><g id="Countryflags.com"><g class="cls-2"><rect id="_51" data-name="51" class="cls-3" width="446.51" height="256"/><rect id="_50" data-name="50" class="cls-4" y="85.33" width="446.51" height="85.33"/><rect id="_49" data-name="49" class="cls-5" y="170.67" width="446.51" height="85.33"/><path id="_48" data-name="48" class="cls-6" d="M110.14,72.39H134m-23.81,8v-4h7.94v4H126v-4h-4m11.9,4h-4v-4h7.94v-4m0,4v4h7.94v-8m-4,0v8m-27.78,0h0" transform="translate(95.26)"/><path id="_47" data-name="47" class="cls-6" d="M110.14,84.76H126m4,0h15.88" transform="translate(95.26)"/><path id="_46" data-name="46" class="cls-6" d="M110.14,175.64H134m-23.81,8v-4h7.94v4H126v-4h-4m11.9,4h-4v-4h7.94v-4m0,4v4h7.94v-8m-4,0v8m-27.78,0h0" transform="translate(95.26)"/><path id="_45" data-name="45" class="cls-6" d="M110.14,171.24H126m4,0h15.88" transform="translate(95.26)"/><path id="_44" data-name="44" class="cls-6" d="M149.83,72.39h23.81m-23.81,8v-4h7.94v4h7.94v-4h-4m11.9,4h-4v-4h7.94v-4m0,4v4h7.94v-8m-4,0v8m-27.78,0h0" transform="translate(95.26)"/><path id="_43" data-name="43" class="cls-6" d="M149.83,84.76h15.88m4,0h15.88" transform="translate(95.26)"/><path id="_42" data-name="42" class="cls-6" d="M149.83,175.64h23.81m-23.81,8v-4h7.94v4h7.94v-4h-4m11.9,4h-4v-4h7.94v-4m0,4v4h7.94v-8m-4,0v8m-27.78,0h0" transform="translate(95.26)"/><path id="_41" data-name="41" class="cls-6" d="M149.83,171.24h15.88m4,0h15.88" transform="translate(95.26)"/><path id="_40" data-name="40" class="cls-6" d="M30.76,72.39H54.57m-23.81,8v-4H38.7v4h7.94v-4h-4m11.9,4h-4v-4h7.94v-4m0,4v4h7.94v-8m-4,0v8m-27.78,0h0" transform="translate(95.26)"/><path id="_39" data-name="39" class="cls-6" d="M30.76,84.76H46.64m4,0H66.48" transform="translate(95.26)"/><path id="_38" data-name="38" class="cls-6" d="M30.76,175.64H54.57m-23.81,8v-4H38.7v4h7.94v-4h-4m11.9,4h-4v-4h7.94v-4m0,4v4h7.94v-8m-4,0v8m-27.78,0h0" transform="translate(95.26)"/><path id="_37" data-name="37" class="cls-6" d="M30.76,171.24H46.64m4,0H66.48" transform="translate(95.26)"/><path id="_36" data-name="36" class="cls-6" d="M70.45,72.39H94.26m-23.81,8v-4h7.94v4h7.94v-4h-4m11.9,4h-4v-4h7.94v-4m0,4v4h7.94v-8m-4,0v8m-27.78,0h0" transform="translate(95.26)"/><path id="_35" data-name="35" class="cls-6" d="M70.45,84.76H86.33m4,0h15.88" transform="translate(95.26)"/><path id="_34" data-name="34" class="cls-6" d="M70.45,175.64H94.26m-23.81,8v-4h7.94v4h7.94v-4h-4m11.9,4h-4v-4h7.94v-4m0,4v4h7.94v-8m-4,0v8m-27.78,0h0" transform="translate(95.26)"/><path id="_33" data-name="33" class="cls-6" d="M70.45,171.24H86.33m4,0h15.88" transform="translate(95.26)"/><path id="_32" data-name="32" class="cls-6" d="M268.9,72.39h23.81m-23.81,8v-4h7.94v4h7.94v-4h-4m11.9,4h-4v-4h7.94v-4m0,4v4h7.94v-8m-4,0v8m-27.78,0h0" transform="translate(95.26)"/><path id="_31" data-name="31" class="cls-6" d="M268.9,84.76h15.88m4,0h15.88" transform="translate(95.26)"/><path id="_30" data-name="30" class="cls-6" d="M268.9,175.64h23.81m-23.81,8v-4h7.94v4h7.94v-4h-4m11.9,4h-4v-4h7.94v-4m0,4v4h7.94v-8m-4,0v8m-27.78,0h0" transform="translate(95.26)"/><path id="_29" data-name="29" class="cls-6" d="M268.9,171.24h15.88m4,0h15.88" transform="translate(95.26)"/><path id="_28" data-name="28" class="cls-6" d="M308.59,72.39H332.4m-23.81,8v-4h7.94v4h7.94v-4h-4m11.9,4h-4v-4h7.94v-4m0,4v4h7.94v-8m-4,0v8m-27.78,0h0" transform="translate(95.26)"/><path id="_27" data-name="27" class="cls-6" d="M308.59,84.76h15.88m4,0h15.88" transform="translate(95.26)"/><path id="_26" data-name="26" class="cls-6" d="M308.59,175.64H332.4m-23.81,8v-4h7.94v4h7.94v-4h-4m11.9,4h-4v-4h7.94v-4m0,4v4h7.94v-8m-4,0v8m-27.78,0h0" transform="translate(95.26)"/><path id="_25" data-name="25" class="cls-6" d="M308.59,171.24h15.88m4,0h15.88" transform="translate(95.26)"/><path id="_24" data-name="24" class="cls-6" d="M189.52,72.39h23.81m-23.81,8v-4h7.94v4h7.94v-4h-4m11.9,4h-4v-4h7.94v-4m0,4v4h7.94v-8m-4,0v8m-27.78,0h0" transform="translate(95.26)"/><path id="_23" data-name="23" class="cls-6" d="M189.52,84.76H205.4m4,0h15.88" transform="translate(95.26)"/><path id="_22" data-name="22" class="cls-6" d="M189.52,175.64h23.81m-23.81,8v-4h7.94v4h7.94v-4h-4m11.9,4h-4v-4h7.94v-4m0,4v4h7.94v-8m-4,0v8m-27.78,0h0" transform="translate(95.26)"/><path id="_21" data-name="21" class="cls-6" d="M189.52,171.24H205.4m4,0h15.88" transform="translate(95.26)"/><path id="_20" data-name="20" class="cls-6" d="M229.21,72.39H253m-23.81,8v-4h7.94v4h7.94v-4h-4m11.9,4h-4v-4H257v-4m0,4v4h7.94v-8m-4,0v8m-27.78,0h0" transform="translate(95.26)"/><path id="_19" data-name="19" class="cls-6" d="M229.21,84.76h15.88m4,0h15.88" transform="translate(95.26)"/><path id="_18" data-name="18" class="cls-6" d="M229.21,175.64H253m-23.81,8v-4h7.94v4h7.94v-4h-4m11.9,4h-4v-4H257v-4m0,4v4h7.94v-8m-4,0v8m-27.78,0h0" transform="translate(95.26)"/><path id="_17" data-name="17" class="cls-6" d="M229.21,171.24h15.88m4,0h15.88" transform="translate(95.26)"/><path id="_16" data-name="16" class="cls-6" d="M-8.93,72.39H14.88m-23.81,8v-4H-1v4H7v-4H3m11.9,4h-4v-4h7.94v-4m0,4v4h7.94v-8m-4,0v8M-5,80.36h0" transform="translate(95.26)"/><path id="_15" data-name="15" class="cls-6" d="M-8.93,84.76H7m4,0H26.79" transform="translate(95.26)"/><path id="_14" data-name="14" class="cls-6" d="M-8.93,175.64H14.88m-23.81,8v-4H-1v4H7v-4H3m11.9,4h-4v-4h7.94v-4m0,4v4h7.94v-8m-4,0v8m-27.78,0h0" transform="translate(95.26)"/><path id="_13" data-name="13" class="cls-6" d="M-8.93,171.24H7m4,0H26.79" transform="translate(95.26)"/><path id="_12" data-name="12" class="cls-6" d="M-88.31,72.39H-64.5m-23.81,8v-4h7.94v4h7.94v-4h-4m11.9,4h-4v-4h7.94v-4m0,4v4h7.94v-8m-4,0v8m-27.78,0h0" transform="translate(95.26)"/><path id="_11" data-name="11" class="cls-6" d="M-88.31,84.76h15.88m4,0h15.88" transform="translate(95.26)"/><path id="_10" data-name="10" class="cls-6" d="M-88.31,175.64H-64.5m-23.81,8v-4h7.94v4h7.94v-4h-4m11.9,4h-4v-4h7.94v-4m0,4v4h7.94v-8m-4,0v8m-27.78,0h0" transform="translate(95.26)"/><path id="_9" data-name="9" class="cls-6" d="M-88.31,171.24h15.88m4,0h15.88" transform="translate(95.26)"/><path id="_8" data-name="8" class="cls-6" d="M-48.62,72.39h23.81m-23.81,8v-4h7.94v4h7.94v-4h-4m11.9,4h-4v-4h7.94v-4m0,4v4h7.94v-8m-4,0v8m-27.78,0h0" transform="translate(95.26)"/><path id="_7" data-name="7" class="cls-6" d="M-48.62,84.76h15.88m4,0H-12.9" transform="translate(95.26)"/><path id="_6" data-name="6" class="cls-6" d="M-48.62,175.64h23.81m-23.81,8v-4h7.94v4h7.94v-4h-4m11.9,4h-4v-4h7.94v-4m0,4v4h7.94v-8m-4,0v8m-27.78,0h0" transform="translate(95.26)"/><path id="_5" data-name="5" class="cls-6" d="M-48.62,171.24h15.88m4,0H-12.9" transform="translate(95.26)"/><path id="_4" data-name="4" class="cls-5" d="M141,105.12s23.08,18.11,6.12,44.13C163.08,139.46,164.46,112.52,141,105.12Z" transform="translate(95.26)"/><path id="_3" data-name="3" class="cls-5" d="M128,102.55c-3.67,4.16-10,0-7.82-4.5,3.8,6.83,7.82,1.31,7.82,1.31s4,5.52,7.82-1.31c2.17,4.53-4.15,8.66-7.82,4.5Z" transform="translate(95.26)"/><path id="_2" data-name="2" class="cls-5" d="M128,159l-2.64-3.46s-6.21,2.08-14.4-.79c6.71,0,10.46-1.19,11.84-1.88,0,0-15.19-8.21-14.89-24.94.88-16.92,9.86-22.06,9.86-22.06s-16,23.35,7.49,42.87l-1-24.15V106.81c1.33-.33,3.77-3.15,3.77-3.15s2.44,2.82,3.77,3.15v17.73l-1,24.15c23.47-19.52,7.49-42.87,7.49-42.87s9,5.14,9.86,22.06c.3,16.72-14.89,24.94-14.89,24.94,1.38.69,5.13,1.88,11.83,1.88-8.18,2.87-14.39.79-14.39.79L128,159Z" transform="translate(95.26)"/><path id="_1" data-name="1" class="cls-5" d="M115,105.12s-23.08,18.11-6.12,44.13C92.92,139.46,91.54,112.52,115,105.12Z" transform="translate(95.26)"/></g></g><g id="Light"><rect class="cls-7" x="110.76" y="15.5" width="225" height="225" rx="15"/></g><g id="Edge"><g class="cls-8"><path class="cls-9" d="M226,15.5A14.51,14.51,0,0,1,240.5,30V226A14.51,14.51,0,0,1,226,240.5H30A14.51,14.51,0,0,1,15.5,226V30A14.51,14.51,0,0,1,30,15.5H226M226,0H30A30.09,30.09,0,0,0,0,30V226a30.09,30.09,0,0,0,30,30H226a30.09,30.09,0,0,0,30-30V30A30.09,30.09,0,0,0,226,0Z" transform="translate(95.26)"/></g></g></svg>