<?xml version="1.0" encoding="utf-8"?>
<!-- Generator: Adobe Illustrator 24.3.0, SVG Export Plug-In . SVG Version: 6.00 Build 0)  -->
<svg version="1.1" id="Layer_1" xmlns="http://www.w3.org/2000/svg" xmlns:xlink="http://www.w3.org/1999/xlink" x="0px" y="0px"
	 viewBox="0 0 297 297" style="enable-background:new 0 0 297 297;" xml:space="preserve">
<style type="text/css">
	.st0{fill:#00607F;}
</style>
<g>
	<g>
		<g>
			<path class="st0" d="M45.4,40.6C45.4,40.6,45.4,40.6,45.4,40.6c-2.8,0-5.5,1.1-7.5,3.1c-2,2-3.1,4.7-3.1,7.5v159.4
				c0,5.8,4.8,10.6,10.6,10.6c24.7,0.1,66.2,5.2,94.8,35.1V89.6c0-2-0.5-3.8-1.5-5.4C115.3,46.4,70.2,40.7,45.4,40.6z"/>
			<path class="st0" d="M262.2,210.6V51.2c0-2.9-1.1-5.5-3.1-7.5c-2-2-4.6-3.1-7.4-3.1c0,0,0,0,0,0c-24.8,0.1-69.9,5.8-93.4,43.6
				c-1,1.5-1.5,3.4-1.5,5.4v166.8c28.6-29.9,70-35.1,94.8-35.1C257.4,221.2,262.2,216.5,262.2,210.6z"/>
		</g>
	</g>
</g>
</svg>
